<svg viewBox="0 0 119.752 119.752" xmlns="http://www.w3.org/2000/svg" xmlns:xlink="http://www.w3.org/1999/xlink" width="119.751953" height="119.752014" fill="none">
	<rect id="light-bulb-svgrepo-com 1" width="85.235268" height="85.235268" x="0.000000" y="0.000000" fill="rgb(255,255,255)" fill-opacity="0" transform="matrix(0.783243,0.621716,-0.621716,0.783243,52.9922,0)" />
	<g id="Group">
		<path id="Vector" d="M39.3142 35.0787C42.2152 31.2533 43.7485 26.6874 43.7485 21.8743C43.7485 15.973 41.434 10.441 37.2314 6.2972C33.0294 2.15435 27.4602 -0.0829076 21.5582 0.00234988C15.8386 0.0833071 10.45 2.37834 6.38497 6.46472C2.32009 10.5509 0.0529135 15.9517 0.000936359 21.6718C-0.0435621 26.5756 1.49874 31.2236 4.46106 35.1137C9.27007 41.4287 11.9187 49.1642 11.9187 56.8951L11.9187 65.3543C11.9187 69.1066 14.9713 72.1592 18.7236 72.1592L25.0532 72.1592C28.8055 72.1592 31.8581 69.1064 31.8581 65.3543L31.8581 56.8957C31.8583 49.0793 34.4179 41.5349 39.3142 35.0787ZM6.69234 33.4147C4.11069 30.0246 2.76657 25.9728 2.80527 21.6974C2.89857 11.4263 11.3288 2.95196 21.5978 2.80669C26.7494 2.73751 31.5993 4.68291 35.2622 8.29458C38.9262 11.907 40.944 16.7298 40.944 21.8745C40.944 26.0704 39.6077 30.0504 37.0795 33.3842C31.9205 40.1871 29.1427 48.1235 29.0291 56.3682L14.7193 56.3682C14.602 48.2035 11.762 40.0719 6.69234 33.4147ZM14.7232 64.4039L14.7232 63.2687L29.0537 64.9104L29.0537 65.3543C29.0537 65.588 29.0294 65.8157 28.9909 66.0384L14.7232 64.4039ZM14.7232 60.4458L14.7232 59.1727L29.0537 59.1727L29.0537 62.0876L14.7232 60.4458ZM18.7236 69.3549C17.2172 69.3549 15.9037 68.5172 15.2215 67.2838L27.2934 68.6668C26.6538 69.1008 25.8828 69.3547 25.0534 69.3547L18.7236 69.3547L18.7236 69.3549Z" fill="rgb(0,0,0)" fill-rule="nonzero" transform="matrix(0.783243,0.621716,-0.621716,0.783243,61.1099,23.1381)" />
		<path id="Vector" d="M2.95967 3.65547C2.85029 2.92162 2.79813 2.16776 2.80505 1.41503C2.81215 0.640606 2.19011 0.00715894 1.41569 5.41444e-05C0.646508 -0.00667671 0.00782519 0.614993 0.000720423 1.38942C-0.00750615 2.28873 0.0547551 3.19029 0.185819 4.06923C0.289586 4.76513 0.887882 5.26489 1.57106 5.26489C1.63987 5.26489 1.7096 5.25985 1.77972 5.24938C2.54554 5.13495 3.07391 4.42148 2.95967 3.65547Z" fill="rgb(0,0,0)" fill-rule="nonzero" transform="matrix(0.783243,0.621716,-0.621716,0.783243,52.4258,42.1985)" />
		<path id="Vector" d="M9.51182 17.7572C9.65691 17.7572 9.80462 17.7344 9.95008 17.6867C10.6858 17.4447 11.0861 16.6522 10.8442 15.9166C9.29008 11.1906 6.97392 6.78755 3.95999 2.82999C3.46191 2.17579 3.02048 1.47896 2.64822 0.758571C2.29261 0.0705281 1.44658 -0.198707 0.758534 0.156907C0.0706777 0.512521 -0.198741 1.35855 0.156872 2.04659C0.603726 2.91076 1.13247 3.74595 1.7289 4.52916C4.55324 8.23786 6.72375 12.3639 8.18005 16.7926C8.37412 17.3829 8.9225 17.7572 9.51182 17.7572Z" fill="rgb(0,0,0)" fill-rule="nonzero" transform="matrix(0.783243,0.621716,-0.621716,0.783243,49.2822,48.8933)" />
		<path id="Vector" d="M3.8363 0.11478C3.12507 -0.191662 2.29998 0.136653 1.99372 0.847881C1.54948 1.87957 0.974558 2.86359 0.285016 3.77263C-0.182968 4.38963 -0.0619985 5.26931 0.554999 5.7373C0.808343 5.9295 1.10599 6.02224 1.40122 6.02224C1.82507 6.02224 2.24389 5.83097 2.51967 5.46713C3.34589 4.37766 4.03543 3.19677 4.56941 1.95735C4.87585 1.24613 4.54772 0.421034 3.8363 0.11478Z" fill="rgb(0,0,0)" fill-rule="nonzero" transform="matrix(0.783243,0.621716,-0.621716,0.783243,70.2651,64.3169)" />
		<path id="Vector" d="M1.40226 2.80452C9.13377 2.80452 15.4238 9.09469 15.4238 16.8262C15.4238 17.2658 15.4036 17.7087 15.3637 18.1426C15.2931 18.9139 15.8607 19.5963 16.6319 19.6672C16.6755 19.6711 16.7187 19.6732 16.7617 19.6732C17.4784 19.6732 18.0897 19.1267 18.1565 18.399C18.204 17.8801 18.2283 17.351 18.2283 16.8262C18.2283 7.54828 10.6802 0 1.40226 0C0.627839 0 0 0.627839 0 1.40226C0 2.17668 0.627839 2.80452 1.40226 2.80452Z" fill="rgb(0,0,0)" fill-rule="nonzero" transform="matrix(0.783243,0.621716,-0.621716,0.783243,74.0059,39.8201)" />
		<path id="Vector" d="M1.40226 10.6572C2.17668 10.6572 2.80452 10.0294 2.80452 9.25493L2.80452 1.40226C2.80452 0.62784 2.17668 0 1.40226 0C0.627839 0 0 0.62784 0 1.40226L0 9.25493C0 10.0294 0.627839 10.6572 1.40226 10.6572Z" fill="rgb(0,0,0)" fill-rule="nonzero" transform="matrix(0.783243,0.621716,-0.621716,0.783243,85.2739,25.6243)" />
		<path id="Vector" d="M4.1125 8.90174C4.37239 9.35177 4.84355 9.60325 5.32817 9.60325C5.56599 9.60325 5.80718 9.54267 6.02799 9.41516C6.69864 9.02795 6.92861 8.17032 6.5414 7.49967L2.61695 0.701505C2.22955 0.0306632 1.37212 -0.199121 0.701463 0.18809C0.0308096 0.575301 -0.199161 1.43292 0.188049 2.10358L4.1125 8.90174Z" fill="rgb(0,0,0)" fill-rule="nonzero" transform="matrix(0.783243,0.621716,-0.621716,0.783243,69.2261,18.6646)" />
		<path id="Vector" d="M8.90175 4.11262L2.10358 0.188173C1.43274 -0.199224 0.575114 0.0307464 0.18809 0.701586C-0.199121 1.37224 0.0306634 2.22986 0.701505 2.61707L7.49967 6.54151C7.72048 6.66902 7.96148 6.7296 8.19949 6.7296C8.68411 6.7296 9.15546 6.47794 9.41516 6.0281C9.80237 5.35745 9.5724 4.49983 8.90175 4.11262Z" fill="rgb(0,0,0)" fill-rule="nonzero" transform="matrix(0.783243,0.621716,-0.621716,0.783243,73.7979,76.2205)" />
		<path id="Vector" d="M0.701506 2.61708L7.49968 6.54154C7.72049 6.66906 7.96149 6.72963 8.1995 6.72963C8.68412 6.72963 9.15547 6.47797 9.41517 6.02813C9.80238 5.35747 9.5726 4.49985 8.90175 4.11264L2.10358 0.188173C1.43293 -0.199225 0.575302 0.0307466 0.18809 0.701589C-0.199121 1.37224 0.0306634 2.22968 0.701506 2.61708Z" fill="rgb(0,0,0)" fill-rule="nonzero" transform="matrix(0.783243,0.621716,-0.621716,0.783243,51.8467,20.6626)" />
		<path id="Vector" d="M9.25489 0L1.40226 0C0.627837 0 0 0.627839 0 1.40226C0 2.17668 0.627837 2.80452 1.40226 2.80452L9.25489 2.80452C10.0293 2.80452 10.6572 2.17668 10.6572 1.40226C10.6572 0.627839 10.0295 0 9.25489 0Z" fill="rgb(0,0,0)" fill-rule="nonzero" transform="matrix(0.783243,0.621716,-0.621716,0.783243,84.582,68.2194)" />
		<path id="Vector" d="M10.6572 1.40226C10.6572 0.627839 10.0294 0 9.25493 0L1.40226 0C0.627839 0 0 0.627839 0 1.40226C0 2.17668 0.627839 2.80452 1.40226 2.80452L9.25493 2.80452C10.0295 2.80452 10.6572 2.17668 10.6572 1.40226Z" fill="rgb(0,0,0)" fill-rule="nonzero" transform="matrix(0.783243,0.621716,-0.621716,0.783243,37.7969,31.0826)" />
		<path id="Vector" d="M1.40372 6.72951C1.64154 6.72951 1.88273 6.66893 2.10354 6.54142L8.90171 2.61695C9.57236 2.22974 9.80233 1.37212 9.41512 0.701465C9.02791 0.0308097 8.1701 -0.199162 7.49963 0.18805L0.701465 4.11251C0.0308097 4.49972 -0.199162 5.35735 0.18805 6.028C0.447748 6.47785 0.919285 6.72951 1.40372 6.72951Z" fill="rgb(0,0,0)" fill-rule="nonzero" transform="matrix(0.783243,0.621716,-0.621716,0.783243,92.3672,52.8266)" />
		<path id="Vector" d="M7.49963 0.188089L0.701465 4.11252C0.0308097 4.49973 -0.199162 5.35734 0.18805 6.02799C0.447749 6.47784 0.919096 6.7295 1.40372 6.7295C1.64154 6.7295 1.88273 6.66892 2.10354 6.5414L8.90171 2.61697C9.57236 2.22977 9.80234 1.37215 9.41512 0.7015C9.0281 0.0306632 8.16992 -0.199119 7.49963 0.188089Z" fill="rgb(0,0,0)" fill-rule="nonzero" transform="matrix(0.783243,0.621716,-0.621716,0.783243,33.2773,44.0567)" />
		<path id="Vector" d="M0.701465 9.41516C0.922274 9.54267 1.16327 9.60325 1.40128 9.60325C1.88591 9.60325 2.35725 9.35159 2.61695 8.90174L6.54142 2.10358C6.92863 1.43292 6.69866 0.575301 6.028 0.18809C5.35753 -0.199121 4.49972 0.0306632 4.11251 0.701505L0.18805 7.49967C-0.199162 8.17032 0.0308097 9.02795 0.701465 9.41516Z" fill="rgb(0,0,0)" fill-rule="nonzero" transform="matrix(0.783243,0.621716,-0.621716,0.783243,92.6201,37.2341)" />
	</g>
</svg>
